<?xml version="1.0" encoding="UTF-8" standalone="no"?><svg xmlns="http://www.w3.org/2000/svg" xmlns:xlink="http://www.w3.org/1999/xlink" contentScriptType="application/ecmascript" contentStyleType="text/css" height="416px" preserveAspectRatio="none" style="width:364px;height:416px;" version="1.1" viewBox="0 0 364 416" width="364px" zoomAndPan="magnify"><defs><filter height="300%" id="f1o077q26xnzll" width="300%" x="-1" y="-1"><feGaussianBlur result="blurOut" stdDeviation="2.0"/><feColorMatrix in="blurOut" result="blurOut2" type="matrix" values="0 0 0 0 0 0 0 0 0 0 0 0 0 0 0 0 0 0 .4 0"/><feOffset dx="4.0" dy="4.0" in="blurOut2" result="blurOut3"/><feBlend in="SourceGraphic" in2="blurOut3" mode="normal"/></filter></defs><g><!--MD5=[9c07d6246b1d02aca97a7d6ff7f65937]
cluster Update Info--><rect fill="#FFFFFF" filter="url(#f1o077q26xnzll)" height="397" style="stroke:#000000;stroke-width:1.5;" width="194" x="158" y="7"/><text fill="#000000" font-family="sans-serif" font-size="14" font-weight="bold" lengthAdjust="spacing" textLength="81" x="214.5" y="23.5332">Update Info</text><ellipse cx="254.8567" cy="144.0713" fill="#FEFECE" filter="url(#f1o077q26xnzll)" rx="70.8567" ry="16.5713" style="stroke:#A80036;stroke-width:1.5;"/><text fill="#000000" font-family="sans-serif" font-size="14" lengthAdjust="spacing" textLength="90" x="206.8567" y="148.5879">scan QR code</text><ellipse cx="255.1985" cy="58.9517" fill="#FEFECE" filter="url(#f1o077q26xnzll)" rx="32.6985" ry="15.4517" style="stroke:#A80036;stroke-width:1.5;"/><text fill="#000000" font-family="sans-serif" font-size="14" lengthAdjust="spacing" textLength="30" x="240.1985" y="62.6802">login</text><ellipse cx="255.097" cy="369.1194" fill="#FEFECE" filter="url(#f1o077q26xnzll)" rx="81.097" ry="18.6194" style="stroke:#A80036;stroke-width:1.5;"/><text fill="#000000" font-family="sans-serif" font-size="14" lengthAdjust="spacing" textLength="117" x="196.0843" y="372.9982">update test results</text><ellipse cx="255.0677" cy="299.2135" fill="#FEFECE" filter="url(#f1o077q26xnzll)" rx="71.5677" ry="16.7135" style="stroke:#A80036;stroke-width:1.5;"/><text fill="#000000" font-family="sans-serif" font-size="14" lengthAdjust="spacing" textLength="92" x="206.0677" y="303.7301">get notification</text><ellipse cx="254.9259" cy="212.7852" fill="#FEFECE" filter="url(#f1o077q26xnzll)" rx="71.9259" ry="16.7852" style="stroke:#A80036;stroke-width:1.5;"/><text fill="#000000" font-family="sans-serif" font-size="14" lengthAdjust="spacing" textLength="93" x="205.4259" y="217.3018">get test results</text><!--MD5=[9c85a0d677648b3f8b4a675dd11c0b26]
entity citizen--><ellipse cx="58.5" cy="214" fill="#FEFECE" filter="url(#f1o077q26xnzll)" rx="8" ry="8" style="stroke:#A80036;stroke-width:1.5;"/><path d="M58.5,222 L58.5,249 M45.5,230 L71.5,230 M58.5,249 L45.5,264 M58.5,249 L71.5,264 " fill="none" filter="url(#f1o077q26xnzll)" style="stroke:#A80036;stroke-width:1.5;"/><text fill="#000000" font-family="sans-serif" font-size="14" lengthAdjust="spacing" textLength="39" x="39" y="284.0332">citizen</text><!--MD5=[50ff75ee6ae0b79220641a2a75a7f2b7]
entity health_inspector--><ellipse cx="58.5" cy="334" fill="#FEFECE" filter="url(#f1o077q26xnzll)" rx="8" ry="8" style="stroke:#A80036;stroke-width:1.5;"/><path d="M58.5,342 L58.5,369 M45.5,350 L71.5,350 M58.5,369 L45.5,384 M58.5,369 L71.5,384 " fill="none" filter="url(#f1o077q26xnzll)" style="stroke:#A80036;stroke-width:1.5;"/><text fill="#000000" font-family="sans-serif" font-size="14" lengthAdjust="spacing" textLength="105" x="6" y="404.0332">health_inspector</text><!--MD5=[d6571c3eebfe3cd1eaf89cdb851ebba2]
link citizen to scan QR code--><path d="M78.03,229.17 C95.51,214.03 122.98,192.07 150,178 C167.52,168.87 187.97,161.55 206.08,156.07 " fill="none" id="citizen-scan QR code" style="stroke:#A80036;stroke-width:1.0;"/><!--MD5=[80ac862a274887296a47885dd8ec7bce]
link scan QR code to login--><path d="M255,127.21 C255,113.59 255,94.33 255,79.75 " fill="none" id="scan QR code-to-login" style="stroke:#A80036;stroke-width:1.0;stroke-dasharray:7.0,7.0;"/><polygon fill="#A80036" points="255,74.61,251,83.61,255,79.61,259,83.61,255,74.61" style="stroke:#A80036;stroke-width:1.0;"/><text fill="#000000" font-family="sans-serif" font-size="13" lengthAdjust="spacing" textLength="55" x="215.5" y="106.4951">«include»</text><!--MD5=[0e1b8f6b7568dcc64851f04f0cca18a5]
link citizen to update test results--><path d="M78.18,268.84 C95.14,288.27 121.75,315.7 150,333 C165.32,342.38 183.41,349.72 200.17,355.26 " fill="none" id="citizen-update test results" style="stroke:#A80036;stroke-width:1.0;"/><!--MD5=[91cf901064d37dafaf1fe50942779589]
link health_inspector to update test results--><path d="M111.11,366.8 C130.36,367.09 152.68,367.44 173.89,367.76 " fill="none" id="health_inspector-update test results" style="stroke:#A80036;stroke-width:1.0;"/><!--MD5=[952910116902db653e8455ef52f50267]
link citizen to get notification--><path d="M78.19,250.93 C94.92,255.36 120.11,262.05 142,268 C164,273.98 188.4,280.72 208.8,286.38 " fill="none" id="citizen-get notification" style="stroke:#A80036;stroke-width:1.0;"/><!--MD5=[1c8d290427bacebfd4416c082810ed9e]
link health_inspector to get notification--><path d="M111.08,346.85 C123.78,342.23 137.36,337.37 150,333 C170.38,325.96 193.13,318.47 212.14,312.33 " fill="none" id="health_inspector-get notification" style="stroke:#A80036;stroke-width:1.0;"/><!--MD5=[e3f73d5e9dd48c2316389ec57df9da7f]
link get notification to get test results--><path d="M255,282.42 C255,269.03 255,250.06 255,235.33 " fill="none" id="get notification-to-get test results" style="stroke:#A80036;stroke-width:1.0;stroke-dasharray:7.0,7.0;"/><polygon fill="#A80036" points="255,230.12,251,239.12,255,235.12,259,239.12,255,230.12" style="stroke:#A80036;stroke-width:1.0;"/><text fill="#000000" font-family="sans-serif" font-size="13" lengthAdjust="spacing" textLength="53" x="216.5" y="261.7451">«extend»</text><!--MD5=[1aa47256e4df9c7a80da25a1e61600c5]
@startuml
left to right direction
skinparam packageStyle rectangle
actor citizen
actor health_inspector
rectangle "Update Info" {
  citizen - - (scan QR code)
  (scan QR code) .> (login) : <<include>>
  citizen - - (update test results)
  health_inspector - - (update test results)
  citizen - - (get notification)
  health_inspector - - (get notification)
  (get notification) .> (get test results) : <<extend>>
}
@enduml

PlantUML version 1.2021.00(Sun Jan 10 15:55:05 IST 2021)
(GPL source distribution)
Java Runtime: OpenJDK Runtime Environment
JVM: OpenJDK 64-Bit Server VM
Default Encoding: Cp1252
Language: en
Country: US
--></g></svg>